<svg width="23" height="23" viewBox="0 0 23 23" fill="none" xmlns="http://www.w3.org/2000/svg">
<path d="M3.36914 3.36914L1.8418 1.8418C1.16348 1.16348 0 1.64414 0 2.60098V7.54688C0 8.14434 0.480664 8.625 1.07812 8.625H6.02402C6.98535 8.625 7.46602 7.46152 6.7877 6.7832L5.4041 5.39961C6.96289 3.84082 9.11914 2.875 11.5 2.875C16.2617 2.875 20.125 6.73828 20.125 11.5C20.125 16.2617 16.2617 20.125 11.5 20.125C9.66719 20.125 7.96914 19.5545 6.57207 18.5797C5.9207 18.126 5.02676 18.2832 4.56855 18.9346C4.11035 19.5859 4.27207 20.4799 4.92344 20.9381C6.79219 22.2363 9.06074 23 11.5 23C17.852 23 23 17.852 23 11.5C23 5.14805 17.852 0 11.5 0C8.32402 0 5.44902 1.28926 3.36914 3.36914ZM11.5 5.75C10.9025 5.75 10.4219 6.23066 10.4219 6.82812V11.5C10.4219 11.7875 10.5342 12.0615 10.7363 12.2637L13.9707 15.498C14.393 15.9203 15.0758 15.9203 15.4936 15.498C15.9113 15.0758 15.9158 14.393 15.4936 13.9752L12.5736 11.0553V6.82812C12.5736 6.23066 12.093 5.75 11.4955 5.75H11.5Z" fill="#A1A1A1"/>
</svg>
